<?xml version="1.0" encoding="UTF-8"?>
<svg id="Layer_1" xmlns="http://www.w3.org/2000/svg" viewBox="0 0 281.95 60.11">
  <defs>
    <style>
      .cls-1 {
        fill: #2b2b2b;
      }

      .cls-2 {
        fill: #393939;
      }

      .cls-3 {
        fill: #2c2c2c;
      }

      .cls-4 {
        fill: #333232;
      }

      .cls-5 {
        fill: #313030;
      }

      .cls-6 {
        fill: #353434;
      }

      .cls-7 {
        fill: #2d2c2c;
      }

      .cls-8 {
        fill: #2d2d2d;
      }

      .cls-9 {
        fill: #50bf2b;
      }

      .cls-10 {
        fill: #323131;
      }

      .cls-11 {
        fill: #c8c8ca;
      }
    </style>
  </defs>
  <g>
    <path class="cls-9" d="M106.89,29.92c0,1.48-.48,2.63-1.43,3.6-1.01,1.02-2.03,2.03-3.05,3.05-7.29,7.28-14.57,14.57-21.86,21.85-.22.22-.45.44-.69.63-.83.67-1.79,1.01-2.85,1.04-1.36.04-2.53-.41-3.52-1.33-.12-.11-.24-.23-.35-.35-8.2-8.2-16.4-16.39-24.59-24.59-.23-.23-.47-.47-.68-.73-.69-.86-1.05-1.85-1.06-2.96-.02-1.36.45-2.52,1.4-3.5.66-.67,1.33-1.33,1.99-2,7.59-7.58,15.17-15.17,22.76-22.75.17-.17.34-.34.51-.51,1.03-.98,2.26-1.44,3.67-1.37,1.1.06,2.08.46,2.91,1.19.19.17.37.35.56.54,6.6,6.59,13.19,13.19,19.79,19.78,1.62,1.62,3.23,3.23,4.85,4.85.14.14.29.29.42.44.64.7,1.02,1.53,1.19,2.45.04.25.04.51.05.66Z"/>
    <path class="cls-1" d="M53.45,60.11c-1.27-.01-2.38-.43-3.32-1.29-.11-.1-.21-.21-.32-.31-8.28-8.27-16.55-16.55-24.83-24.82-.12-.12-.24-.23-.35-.36-.85-.95-1.28-2.06-1.26-3.33.02-1.25.46-2.34,1.31-3.26.12-.14.26-.26.39-.39,8.25-8.25,16.5-16.49,24.75-24.74.18-.18.37-.37.57-.52,1.15-.9,2.44-1.24,3.89-1,.96.16,1.78.58,2.49,1.24.07.06.13.13.2.19,1.51,1.51,3.02,3.02,4.53,4.53.08.08.15.16.22.24.03.04.03.11-.01.15-.1.11-.2.21-.31.32-5.34,5.34-10.69,10.68-16.03,16.03-.21.21-.42.41-.62.63-1.31,1.37-2.14,2.98-2.51,4.84-.61,3.07.38,6.33,2.59,8.54,1.99,2,3.99,3.99,5.98,5.98,3.52,3.52,7.04,7.03,10.56,10.55.51.51.5.38,0,.87-1.46,1.46-2.92,2.92-4.38,4.38-.45.45-.94.83-1.52,1.09-.63.29-1.32.44-2.03.45Z"/>
    <path class="cls-11" d="M30,60.06c-.15,0-.29,0-.44,0-.39,0-.76-.1-1.13-.23-.4-.15-.79-.32-1.13-.57-.31-.23-.61-.47-.89-.74-8.27-8.28-16.55-16.55-24.83-24.82-.45-.45-.81-.95-1.11-1.5-.15-.27-.24-.58-.32-.88-.09-.34-.18-.68-.14-1.03,0-.02,0-.04,0-.06-.05-.6.06-1.17.24-1.74.12-.39.32-.74.53-1.09.14-.24.32-.45.52-.64.58-.57,1.15-1.15,1.72-1.72,7.76-7.75,15.51-15.51,23.27-23.26.08-.08.16-.15.23-.24.33-.38.75-.65,1.17-.92.38-.24.8-.38,1.23-.48C29.29.06,29.67,0,30.06,0c.39,0,.76.1,1.15.14.47.16.94.3,1.36.59.35.24.69.49.99.79,1.46,1.46,2.92,2.92,4.38,4.38.47.47.46.47-.02.95-4.8,4.79-9.59,9.59-14.39,14.39-.76.76-1.51,1.51-2.27,2.27-.54.54-.96,1.16-1.33,1.82-.15.27-.3.55-.43.83-.25.54-.43,1.1-.56,1.67-.17.75-.26,1.22-.24,1.96,0,.26,0,.52,0,.77,0,.33-.02.66.1.98.05.78.34,1.51.61,2.23.26.69.64,1.33,1.09,1.92.21.28.41.57.68.8.53.69,1.18,1.26,1.79,1.87,4.95,4.95,9.9,9.91,14.86,14.86.14.14.28.29.42.44.06.06.06.2,0,.26-.1.11-.19.22-.3.33-.7.7-1.41,1.41-2.11,2.11-.72.72-1.44,1.43-2.15,2.15-.34.34-.72.63-1.12.89-.5.33-1.06.5-1.64.64-.09.02-.18.02-.28.02-.22,0-.44,0-.66,0h0Z"/>
  </g>
  <g>
    <path class="cls-7" d="M281.95,28.71c-.47,0-.93-.01-1.4-.01-.44,0-.87-.06-1.3-.16-.31-.08-.61-.2-.89-.36-.54-.31-.92-.75-1.13-1.34-.16-.44-.24-.9-.26-1.36,0-.15,0-.29,0-.44,0-1.18,0-2.36,0-3.54,0-.12,0-.23-.02-.35,0-.02-.03-.05-.06-.06-.06-.01-.11-.02-.17-.02-.25,0-.49,0-.74,0-.06,0-.12,0-.17-.02-.02,0-.05-.03-.06-.06-.01-.06-.02-.11-.02-.17,0-.71,0-1.43,0-2.14,0-.04,0-.09.01-.13.02-.03.06-.07.09-.08.12-.01.23-.01.35-.01.2,0,.41,0,.61,0,.15,0,.17-.07.17-.19,0-.1,0-.2,0-.31,0-.52,0-1.05,0-1.57,0-.1,0-.2,0-.3,0-.06.05-.11.11-.12.06,0,.12,0,.17,0,.86,0,1.72,0,2.58,0,.06,0,.12,0,.17.01.04.01.08.05.09.08.02.08.02.17.02.26,0,.6,0,1.19,0,1.79,0,.09,0,.17.01.26,0,.05.04.08.08.09.07.01.14.01.22.01.38,0,.76,0,1.14,0,.13,0,.26,0,.39.01v2.62c-.06,0-.11-.02-.17-.02-.48,0-.96,0-1.44,0-.04,0-.09,0-.13.01-.05,0-.08.05-.09.08-.01.09-.01.17-.01.26,0,1.21,0,2.41,0,3.62,0,.07,0,.15,0,.22.02.47.28.7.71.73.38.02.75.03,1.13,0v2.71Z"/>
    <path class="cls-3" d="M238.37,21.92c0,2.08,0,4.17,0,6.25,0,.12,0,.23,0,.35,0,.13-.05.18-.19.18-.92,0-1.84,0-2.75,0-.03,0-.06,0-.09,0-.05,0-.1-.06-.1-.12,0-.19,0-.38,0-.57,0-.15,0-.29,0-.44,0-.1-.03-.14-.07-.14-.07,0-.1.06-.13.1-.41.52-.93.87-1.55,1.09-.49.18-.99.23-1.5.21-1.53-.04-2.7-.73-3.53-2-.44-.67-.68-1.41-.8-2.2-.06-.43-.08-.87-.07-1.31.02-.82.17-1.62.52-2.37.19-.41.42-.8.72-1.14.59-.7,1.34-1.16,2.23-1.37.71-.17,1.41-.17,2.12.01.72.19,1.34.55,1.84,1.11.04.04.08.09.12.13,0,0,.03,0,.04,0,.04,0,.05-.02.06-.05,0-.04.01-.09.01-.13,0-.13,0-.26,0-.39,0-1.18,0-2.36,0-3.54,0-.1,0-.2,0-.31,0-.05.06-.12.11-.12.06,0,.12,0,.17,0,.86,0,1.72,0,2.58,0,.06,0,.12,0,.17.01.04.01.08.05.09.08.02.08.02.17.02.26,0,.6,0,1.19,0,1.79,0,1.54,0,3.09,0,4.63ZM235.23,23.58c-.01-.16-.02-.36-.05-.56-.17-1.21-1.11-1.86-1.9-1.95-.48-.05-.93.02-1.35.25-.65.37-1.01.94-1.12,1.68-.05.35-.06.69-.01,1.04.04.31.12.6.27.87.48.91,1.47,1.42,2.59,1.08.72-.22,1.18-.72,1.42-1.43.11-.31.12-.63.15-.99Z"/>
    <path class="cls-8" d="M119.28,22.26c0-1.97,0-3.93,0-5.9,0-.13,0-.26,0-.39,0-.08.06-.13.14-.13.03,0,.06,0,.09,0,.9,0,1.81,0,2.71,0,.04,0,.09,0,.13.02.02,0,.05.04.06.06.01.12.02.23.02.35,0,1.38,0,2.77,0,4.15,0,.28.01.55.02.83,0,.01.01.03.02.03.03,0,.06.01.08,0,.04-.02.06-.06.09-.09.06-.08.12-.16.19-.24,1.22-1.6,2.43-3.2,3.65-4.8.26-.34.19-.3.61-.3.96,0,1.92,0,2.88,0,.1,0,.2,0,.3.02.02,0,.04.05.04.06-.06.1-.13.19-.2.29-.59.74-1.17,1.49-1.76,2.23-.9,1.14-1.81,2.28-2.71,3.43-.05.07-.11.14-.16.21-.03.04-.03.11,0,.16.05.07.11.14.16.21,1.26,1.6,2.52,3.2,3.79,4.8.32.41.65.82.97,1.24.04.04.06.1.09.15,0,.02-.02.06-.03.07-.04.01-.09.01-.13.01-1.12,0-2.24,0-3.37,0-.01,0-.03,0-.04,0-.13.02-.22-.05-.29-.15-.07-.09-.14-.19-.21-.28-1.22-1.6-2.44-3.2-3.65-4.8-.05-.07-.1-.14-.16-.21-.03-.03-.05-.07-.1-.06-.03,0-.07.05-.07.1,0,.15,0,.29,0,.44,0,1.49,0,2.97,0,4.46,0,.13,0,.26-.01.39,0,.05-.06.11-.12.11-.06,0-.12,0-.17,0-.84,0-1.69,0-2.53,0-.06,0-.12,0-.17,0-.07,0-.13-.06-.13-.15,0-.13,0-.26,0-.39,0-1.73,0-3.47,0-5.2,0-.23,0-.47,0-.7Z"/>
    <path class="cls-7" d="M265.15,21.9c0-2.1,0-4.2,0-6.29,0-.13,0-.26.02-.39,0-.02.03-.05.06-.06.04-.01.09-.02.13-.02.9,0,1.81,0,2.71,0,.04,0,.09,0,.13.01.05,0,.08.05.09.08.01.13.01.26.01.39,0,2.11,0,4.22,0,6.34,0,.15,0,.29,0,.44,0,.04.01.06.05.06.01,0,.03,0,.04,0,.08-.1.17-.2.25-.31.82-1.1,1.63-2.2,2.45-3.29.34-.46.2-.38.74-.38,1.03,0,2.07,0,3.1,0,.07,0,.14.02.21.03,0,0,.02.03.01.04-.04.06-.07.12-.11.18-.52.63-1.04,1.26-1.56,1.89-.74.9-1.49,1.79-2.23,2.69-.06.08-.13.16-.19.24-.03.04-.03.08,0,.12.11.14.22.27.33.41,1.2,1.43,2.4,2.85,3.6,4.28.07.08.13.16.18.24.01.02,0,.05,0,.08,0,.01-.02.02-.03.03-.04,0-.09,0-.13,0-1.12,0-2.24,0-3.37,0-.06,0-.12,0-.17,0-.04,0-.09-.03-.11-.06-.08-.1-.16-.2-.24-.31-.83-1.14-1.66-2.29-2.49-3.43-.08-.11-.16-.21-.24-.31-.02-.03-.05-.03-.07,0,0,0-.02.02-.02.03,0,.13-.01.26-.01.39,0,1.06,0,2.13,0,3.19,0,.12,0,.23,0,.35,0,.1-.06.15-.17.15-.03,0-.06,0-.09,0-.87,0-1.75,0-2.62,0-.04,0-.09,0-.13,0-.06,0-.12-.05-.12-.11,0-.13-.01-.26-.01-.39,0-2.1,0-4.2,0-6.29Z"/>
    <path class="cls-7" d="M259.92,24.33c-1.03,0-2.07,0-3.1,0-.1,0-.2,0-.31,0-.06,0-.12.05-.11.1.04.65.3,1.18.85,1.54.27.18.57.28.9.29.25,0,.49,0,.74-.06.37-.11.65-.31.87-.62.04-.06.08-.12.12-.18.04-.07.09-.11.18-.11.04,0,.09,0,.13,0,.93,0,1.86,0,2.8,0,.06,0,.12,0,.17,0,.06,0,.09.06.08.13,0,.03,0,.06-.02.09-.32,1.02-.92,1.84-1.8,2.45-.74.5-1.55.78-2.45.85-.45.03-.91.04-1.35-.02-1.99-.28-3.38-1.33-4.07-3.24-.17-.48-.26-.98-.28-1.5-.03-.57-.02-1.13.09-1.7.09-.49.24-.96.46-1.4.66-1.3,1.72-2.1,3.12-2.46.6-.15,1.21-.21,1.82-.17.91.06,1.78.28,2.56.77,1.02.64,1.66,1.57,1.99,2.72.13.45.2.91.2,1.38,0,.33-.02.67-.03,1,0,.07-.07.13-.15.13-.12,0-.23,0-.35,0-1.02,0-2.04,0-3.06,0ZM258.36,22.59c.52,0,1.05,0,1.57,0,.09,0,.17,0,.26,0,.03,0,.08-.06.08-.09.02-.16-.01-.32-.06-.47-.15-.47-.47-.8-.92-1-.47-.21-.95-.24-1.45-.13-.33.08-.63.23-.87.47-.3.29-.48.65-.55,1.07,0,.03,0,.06,0,.09,0,.03.02.05.05.06.09,0,.17.01.26.01.54,0,1.08,0,1.62,0Z"/>
    <path class="cls-7" d="M222.95,24.33c-1.01,0-2.01,0-3.02,0-.13,0-.26,0-.39,0-.07,0-.11.04-.11.1.02.85.56,1.55,1.37,1.77.43.12.87.1,1.29-.06.27-.1.48-.27.65-.49.07-.09.13-.2.19-.29.02-.03.07-.06.1-.07.06-.01.12,0,.17,0,.93,0,1.86,0,2.8,0,.06,0,.12,0,.17,0,.04,0,.08.05.08.09,0,.06,0,.12-.03.17-.32.97-.88,1.77-1.72,2.36-.75.53-1.6.83-2.52.89-.45.03-.9.04-1.35-.02-1.91-.24-3.46-1.38-4.09-3.33-.17-.53-.25-1.08-.27-1.63-.02-.61.03-1.22.18-1.82.07-.3.17-.59.3-.87.64-1.41,1.73-2.27,3.22-2.65.6-.15,1.21-.21,1.82-.17.63.04,1.24.15,1.83.4,1.41.59,2.31,1.64,2.72,3.1.11.39.17.8.19,1.2.02.39.01.79-.03,1.18,0,.08-.07.13-.15.13-.12,0-.23,0-.35,0-1.02,0-2.04,0-3.06,0ZM221.41,22.59c.52,0,1.05,0,1.57,0,.09,0,.17,0,.26,0,.05,0,.1-.07.1-.12-.02-.17-.04-.34-.1-.51-.14-.37-.39-.65-.73-.84-.67-.36-1.36-.38-2.05-.05-.58.28-.88.78-1,1.4-.01.06.02.12.08.13.1,0,.2,0,.3,0,.52,0,1.05,0,1.57,0Z"/>
    <path class="cls-7" d="M196.72,28.83c-.74,0-1.44-.1-2.11-.36-1.83-.69-2.81-2.21-3.06-3.69-.16-.91-.17-1.83.08-2.73.47-1.75,1.59-2.91,3.31-3.47.85-.28,1.73-.34,2.63-.22.63.09,1.22.25,1.79.53,1.31.66,2.14,1.72,2.52,3.13.27,1,.27,2.02.01,3.02-.43,1.63-1.43,2.76-3,3.39-.7.28-1.43.39-2.16.38ZM198.87,23.59c0-.07,0-.15,0-.22-.03-.41-.09-.81-.28-1.18-.47-.96-1.59-1.44-2.66-.99-.57.24-.94.67-1.14,1.25-.17.5-.2,1.02-.15,1.55.03.3.09.6.21.89.48,1.09,1.57,1.48,2.61,1.1.62-.23,1.03-.69,1.24-1.32.12-.35.16-.71.16-1.07Z"/>
    <path class="cls-8" d="M144.4,23.51c0-1.53,0-3.06,0-4.59,0-.12,0-.23,0-.35,0-.03.05-.09.08-.09.04,0,.09,0,.13,0,.89,0,1.78,0,2.67,0,.04,0,.09,0,.13,0,.07,0,.12.06.12.15,0,.26,0,.52,0,.79,0,.07.01.14.02.22,0,0,.02.02.03.02.01,0,.03.01.04,0,.06-.06.12-.13.18-.19.46-.49,1.03-.8,1.68-.97.44-.12.89-.15,1.34-.13.36.02.73.06,1.08.16,1.1.34,1.85,1.06,2.3,2.12.23.54.33,1.12.35,1.7,0,.13,0,.26,0,.39,0,1.83,0,3.67,0,5.5,0,.12,0,.23-.01.35,0,.05-.04.08-.08.09-.04.01-.09.01-.13.01-.89,0-1.78,0-2.67,0-.04,0-.09,0-.13-.01-.05,0-.1-.06-.1-.12,0-.09,0-.17,0-.26,0-.77,0-1.54,0-2.32,0-.9,0-1.81,0-2.71,0-.2-.01-.41-.03-.61-.02-.28-.11-.54-.25-.78-.3-.51-.74-.8-1.33-.88-.22-.03-.44-.03-.65,0-.64.07-1.11.4-1.4.98-.11.22-.19.46-.2.71-.01.22-.02.44-.02.65,0,1.62,0,3.23,0,4.85,0,.55.04.49-.49.5-.79,0-1.57,0-2.36,0-.07,0-.14,0-.21-.02-.02,0-.05-.04-.06-.06-.01-.09-.02-.17-.02-.26,0-.68,0-1.37,0-2.05,0-.93,0-1.86,0-2.8Z"/>
    <path class="cls-7" d="M142.16,23.64c0,1.54,0,3.09,0,4.63,0,.12,0,.23-.02.35,0,.02-.03.05-.06.06-.02.01-.06.02-.08.02-.93,0-1.86,0-2.8,0-.03,0-.06,0-.09-.01-.03-.02-.08-.05-.08-.08-.02-.08-.02-.17-.02-.26,0-.28,0-.55,0-.83,0-.03-.02-.05-.05-.06-.01,0-.03,0-.04.01-.08.08-.16.17-.24.25-.53.52-1.17.86-1.9,1-.79.15-1.56.11-2.32-.16-.83-.3-1.46-.84-1.89-1.6-.3-.54-.48-1.12-.55-1.74-.04-.35-.05-.7-.05-1.05,0-1.7,0-3.41,0-5.11,0-.13,0-.26,0-.39,0-.16.05-.19.17-.19.93,0,1.86,0,2.8,0,.03,0,.06,0,.08.02.02.01.05.04.06.06,0,.13.01.26.01.39,0,1.66,0,3.32,0,4.98,0,.28.02.55.09.82.06.23.14.44.27.64.3.45.74.7,1.27.77.3.04.61.03.91-.05.68-.18,1.1-.62,1.29-1.29.08-.28.1-.57.1-.86,0-1.44,0-2.88,0-4.32,0-.28,0-.55,0-.83,0-.06,0-.12,0-.17,0-.09.05-.14.13-.14.06,0,.12,0,.17,0,.84,0,1.69,0,2.53,0,.07,0,.15,0,.22.02.03,0,.07.05.08.09.01.13.01.26.01.39,0,1.56,0,3.12,0,4.67Z"/>
    <path class="cls-8" d="M157.78,25.33c.42,0,.85,0,1.27,0,.22,0,.22,0,.28.19.05.14.1.28.18.39.15.2.34.35.58.45.46.2.93.21,1.41.06.13-.04.24-.11.34-.19.36-.31.33-.87-.09-1.11-.13-.07-.26-.12-.4-.18-.48-.18-.97-.3-1.47-.42-.51-.12-1.01-.27-1.5-.45-.47-.17-.88-.45-1.23-.81-.32-.34-.51-.74-.58-1.2-.09-.53-.06-1.05.12-1.55.22-.61.61-1.09,1.15-1.45.4-.27.84-.46,1.31-.58.79-.18,1.58-.24,2.38-.12.39.06.77.13,1.14.28,1.15.46,1.87,1.3,2.2,2.48.02.08.04.17.06.26.08.42.08.42-.34.42-.73,0-1.46,0-2.19,0-.07,0-.15,0-.22,0-.04,0-.09-.01-.1-.06-.02-.07-.05-.14-.07-.21-.18-.51-.57-.76-1.07-.85-.23-.04-.47-.03-.7,0-.18.02-.34.08-.49.18-.4.27-.4.83-.02,1.12.14.11.31.17.47.23.34.12.7.21,1.05.3.62.15,1.24.33,1.84.55.5.18.93.47,1.3.86.3.33.49.71.58,1.15.1.5.1.98-.05,1.47-.17.56-.5,1.02-.95,1.38-.42.33-.89.55-1.4.7-.49.15-1,.2-1.51.21-.73.01-1.45-.05-2.15-.29-.54-.19-1.04-.45-1.48-.82-.58-.49-.99-1.1-1.16-1.85-.02-.1-.04-.2-.05-.3-.02-.19.01-.24.21-.24.45,0,.9,0,1.35,0h0Z"/>
    <path class="cls-8" d="M175.42,25.33c.45,0,.9,0,1.35,0,.13,0,.16.02.2.13.01.04.03.08.04.12.11.36.35.6.68.76.48.23.98.24,1.49.08.13-.04.24-.11.34-.2.34-.32.3-.83-.09-1.08-.12-.08-.26-.13-.39-.18-.38-.15-.77-.25-1.17-.35-.44-.11-.88-.21-1.31-.35-.23-.08-.47-.16-.7-.25-.41-.17-.76-.43-1.06-.75-.24-.26-.42-.56-.51-.9-.22-.88-.12-1.7.39-2.47.21-.32.49-.58.8-.79.51-.35,1.09-.56,1.69-.67.49-.09.98-.12,1.48-.09.5.03.99.09,1.46.25,1.3.44,2.12,1.33,2.45,2.67.03.14.06.29.08.43.01.08-.04.13-.13.13-.04,0-.09,0-.13,0-.79,0-1.57,0-2.36,0-.04,0-.09,0-.13,0-.06,0-.11-.02-.14-.09-.02-.05-.04-.11-.06-.17-.17-.51-.55-.77-1.06-.87-.24-.05-.49-.04-.74,0-.18.02-.34.09-.48.19-.37.27-.38.81-.02,1.09.1.08.22.14.34.19.28.12.58.2.87.27.54.13,1.07.27,1.6.44.22.07.44.16.66.24.46.17.85.45,1.18.8.27.28.45.61.55.98.18.68.16,1.35-.13,2.01-.22.47-.55.85-.98,1.15-.48.34-1.02.55-1.6.67-.63.13-1.27.14-1.91.1-.57-.03-1.12-.16-1.65-.37-.48-.19-.92-.45-1.3-.79-.55-.49-.92-1.08-1.09-1.8-.03-.13-.04-.26-.05-.39,0-.05.06-.12.1-.12.07,0,.15,0,.22,0,.41,0,.82,0,1.22,0h0Z"/>
    <path class="cls-7" d="M212.14,28.7c-.38,0-.76,0-1.14,0-.09,0-.17,0-.26,0-.06,0-.11-.06-.11-.11,0-.15,0-.29,0-.44,0-2.18,0-4.37,0-6.55,0-.14,0-.29-.02-.43,0-.02-.03-.05-.06-.06-.07-.01-.14-.02-.22-.02-.23,0-.47,0-.7,0-.08,0-.14-.06-.14-.14,0-.06,0-.12,0-.17,0-.66,0-1.31,0-1.97,0-.06,0-.12,0-.17,0-.09.05-.14.13-.14.13,0,.26,0,.39,0,.16,0,.32,0,.48,0,.06,0,.12-.05.12-.1,0-.12,0-.23.01-.35.02-.38.06-.75.16-1.12.27-1.04.9-1.77,1.9-2.19.37-.15.75-.25,1.13-.3.45-.06.9-.09,1.35-.07.06,0,.11.02.17.04.02,0,.04.03.06.06.01.03.02.06.02.08,0,.79,0,1.57,0,2.36,0,.08-.06.13-.14.13-.09,0-.17,0-.26,0-.16,0-.32.04-.47.07-.34.08-.56.3-.66.63-.06.21-.1.42-.09.65,0,.05.05.11.11.11.09,0,.17,0,.26,0,.35,0,.7,0,1.05,0,.25,0,.26.01.26.28,0,.23,0,.47,0,.7,0,.42,0,.84,0,1.27,0,.09,0,.17-.01.26,0,.04-.03.08-.08.09-.07,0-.14.01-.22.01-.29,0-.58,0-.87,0-.1,0-.2,0-.31,0-.11,0-.2.03-.19.18,0,.12,0,.23,0,.35,0,.99,0,1.98,0,2.97,0,1.21,0,2.42,0,3.63,0,.13,0,.26-.01.39,0,.05-.04.08-.08.09-.07.01-.14.01-.22.01-.44,0-.87,0-1.31,0Z"/>
    <path class="cls-7" d="M204.04,24.87c0-1.14,0-2.27,0-3.41,0-.1,0-.2-.02-.3,0-.02-.03-.05-.06-.06-.06-.01-.11-.02-.17-.02-.25,0-.5,0-.74,0-.08,0-.14-.06-.14-.13,0-.07,0-.15,0-.22,0-.66,0-1.31,0-1.97,0-.07,0-.14.02-.22,0-.02.04-.05.06-.05.09-.01.17-.01.26-.01.2,0,.41,0,.61,0,.13,0,.18-.05.18-.19,0-.19,0-.38.01-.57.02-.41.11-.81.25-1.19.29-.77.8-1.34,1.54-1.71.45-.23.92-.35,1.42-.42.4-.05.81-.08,1.22-.07.07,0,.15,0,.22.02.04,0,.08.03.09.08,0,.04.02.09.02.13,0,.74,0,1.49,0,2.23,0,.04,0,.09-.01.13-.01.04-.04.08-.09.08-.1,0-.2,0-.31,0-.18,0-.35.04-.51.09-.27.08-.46.25-.56.51-.1.25-.14.5-.11.77,0,.03.05.09.08.09.09,0,.17,0,.26,0,.39,0,.79,0,1.18,0,.08,0,.14.05.14.13,0,.04,0,.09,0,.13,0,.12,0,.23,0,.35,0,.57,0,1.14,0,1.7,0,.07,0,.14-.02.22,0,.02-.04.05-.06.06-.07.01-.14.02-.22.02-.41,0-.82,0-1.22,0-.1,0-.15.06-.15.17,0,.04,0,.09,0,.13,0,.13,0,.26,0,.39,0,2.17,0,4.34,0,6.51,0,.42.02.42-.39.42-.8,0-1.6,0-2.4,0-.09,0-.17,0-.26-.02-.02,0-.05-.03-.06-.06-.01-.06-.02-.11-.02-.17,0-.36,0-.73,0-1.09,0-.83,0-1.66,0-2.49Z"/>
    <path class="cls-8" d="M167.45,23.38c0-.66,0-1.31,0-1.97,0-.07,0-.15,0-.22,0-.05-.06-.1-.12-.1-.12,0-.23,0-.35,0-.19,0-.38,0-.57,0-.14,0-.2-.05-.2-.17,0-.76,0-1.51,0-2.27,0-.01,0-.03,0-.04,0-.06.06-.11.11-.11.29,0,.58,0,.87-.01.06,0,.11,0,.17-.02.02,0,.05-.04.06-.06.01-.09.02-.17.02-.26,0-.6,0-1.19,0-1.79,0-.09,0-.17.01-.26,0-.05.06-.1.12-.11.01,0,.03,0,.04,0,.93,0,1.86,0,2.8,0,.01,0,.03,0,.04,0,.06,0,.11.05.12.11,0,.12,0,.23,0,.35,0,.58,0,1.17,0,1.75,0,.07.01.14.03.21,0,.02.03.05.06.06.05.01.11.02.17.03.48,0,.96,0,1.44,0,.09,0,.17,0,.26.01.05,0,.08.04.09.08.01.04.01.09.01.13,0,.71,0,1.43,0,2.14,0,.04,0,.09-.01.13,0,.05-.04.08-.08.09-.07.02-.14.02-.22.02-.44,0-.87,0-1.31,0-.09,0-.17,0-.26,0-.11,0-.17.05-.17.15,0,.07,0,.15,0,.22,0,1.18,0,2.36,0,3.54,0,.16.01.32.04.48.05.27.22.44.48.5.14.03.29.04.43.04.26,0,.52,0,.79,0,.07,0,.15,0,.22.01.03,0,.07.04.09.08.02.04.02.08.02.13,0,.74,0,1.49,0,2.23,0,.04,0,.09-.01.13,0,.05-.04.08-.08.09-.07.01-.14.01-.22.01-.42,0-.84,0-1.27,0-.45,0-.9-.05-1.34-.16-.31-.08-.61-.2-.89-.36-.55-.32-.93-.78-1.15-1.38-.1-.29-.17-.59-.2-.89-.03-.32-.05-.64-.05-.96,0-.52,0-1.05,0-1.57Z"/>
    <path class="cls-8" d="M185.11,23.41c0-.61,0-1.22,0-1.83,0-.12,0-.23,0-.35,0-.09-.05-.14-.13-.14-.13,0-.26,0-.39,0-.23-.02-.46.05-.68-.05-.08-.21-.03-.43-.03-.65,0-.51,0-1.02,0-1.53,0-.09,0-.17,0-.26,0-.05.06-.11.11-.11.29,0,.58,0,.87,0,.06,0,.12,0,.17-.02.02,0,.05-.03.06-.06.01-.07.02-.14.02-.22,0-.6,0-1.19,0-1.79,0-.1,0-.2.01-.3,0-.05.06-.1.12-.11.04,0,.09,0,.13,0,.87,0,1.75,0,2.62,0,.06,0,.12,0,.17.02.02,0,.06.03.06.06.01.07.02.14.02.21,0,.63,0,1.25,0,1.88,0,.09,0,.17.02.26,0,.02.04.05.06.06.07.01.14.02.22.02.47,0,.93,0,1.4,0,.09,0,.17,0,.26.01.05,0,.1.06.1.12,0,.01,0,.03,0,.04,0,.74,0,1.48,0,2.23,0,.04,0,.09-.02.13,0,.02-.04.06-.06.06-.07.01-.14.02-.22.02-.47,0-.93,0-1.4,0-.09,0-.17,0-.26.01-.05,0-.1.06-.11.12,0,.04,0,.09,0,.13,0,1.22,0,2.45,0,3.67,0,.16.02.32.05.48.06.27.24.43.5.49.13.03.26.04.39.04.23,0,.47,0,.7,0,.1,0,.2,0,.31,0,.08,0,.13.06.14.14,0,.04,0,.09,0,.13,0,.7,0,1.4,0,2.1,0,.06,0,.12,0,.17,0,.06-.05.11-.1.12-.03,0-.06,0-.09,0-.54,0-1.08,0-1.62,0-.47-.01-.93-.08-1.37-.23-.08-.03-.16-.06-.24-.09-.87-.36-1.41-1-1.63-1.91-.11-.46-.15-.92-.15-1.39,0-.55,0-1.11,0-1.66Z"/>
    <path class="cls-8" d="M246.02,23.56c0-1.51,0-3.03,0-4.54,0-.13,0-.26,0-.39,0-.1.05-.15.17-.15.03,0,.06,0,.09,0,.89,0,1.78,0,2.67,0,.04,0,.09,0,.13.01.03.01.08.05.08.08.01.13.01.26.01.39,0,.32,0,.64,0,.96,0,.02.02.06.04.07.02,0,.06,0,.07-.01.08-.09.15-.18.22-.27.29-.34.62-.62.99-.85.54-.32,1.12-.49,1.74-.5.07,0,.13.06.14.14,0,.12,0,.23,0,.35,0,.8,0,1.6,0,2.4,0,.1,0,.2,0,.31,0,.05-.06.11-.12.11-.12,0-.23,0-.35.01-.32.01-.64.02-.96.04-.25.01-.49.09-.72.18-.46.19-.77.51-.91.99-.08.27-.13.54-.14.81,0,.15,0,.29,0,.44,0,1.35,0,2.71,0,4.06,0,.13,0,.26-.01.39,0,.05-.04.08-.08.09-.04.01-.09.01-.13.01-.89,0-1.78,0-2.67,0-.04,0-.09,0-.13,0-.06,0-.12-.05-.12-.11,0-.13-.01-.26-.01-.39,0-1.54,0-3.09,0-4.63Z"/>
    <path class="cls-8" d="M240.63,23.55c0-1.53,0-3.06,0-4.59,0-.13,0-.26.01-.39,0-.04.03-.08.08-.09.04,0,.09-.01.13-.01.9,0,1.81,0,2.71,0,.04,0,.09,0,.13.02.02,0,.05.04.06.06.01.03.01.06.01.09,0,.1,0,.2,0,.31,0,3.09,0,6.17,0,9.26,0,.55.05.5-.48.5-.76,0-1.51,0-2.27,0-.09,0-.17,0-.26,0-.05,0-.11-.06-.11-.12,0-.1,0-.2,0-.31,0-.8,0-1.6,0-2.4,0-.77,0-1.54,0-2.31Z"/>
    <path class="cls-5" d="M131.11,42.56c0-.95,0-1.89,0-2.84,0-.13,0-.26,0-.39,0-.06.05-.12.1-.12.22,0,.44,0,.65,0,.05,0,.1.06.1.12,0,.19,0,.38,0,.57,0,.07.01.14.02.22,0,0,.02.02.03.02.01,0,.04.01.04,0,.05-.05.1-.11.14-.17.37-.47.86-.74,1.44-.85.48-.09.96-.07,1.43.06.64.19,1.14.56,1.47,1.16.04.08.08.15.13.23.01.02.05.03.07,0,.04-.06.08-.12.11-.19.42-.78,1.09-1.19,1.96-1.29.41-.05.82-.03,1.21.09.81.25,1.36.76,1.64,1.56.15.42.18.85.18,1.29,0,1.18,0,2.36,0,3.54,0,.09,0,.17,0,.26,0,.06-.06.11-.11.11-.2,0-.41,0-.61,0-.08,0-.13-.06-.13-.14,0-.13,0-.26,0-.39,0-1.09,0-2.18,0-3.28,0-.35-.03-.7-.14-1.03-.19-.58-.56-.98-1.14-1.17-.28-.09-.57-.13-.86-.1-.17.02-.35.05-.51.1-.53.16-.91.51-1.14,1.01-.16.35-.23.72-.25,1.1,0,.16,0,.32,0,.48,0,.99,0,1.98,0,2.97,0,.12,0,.23,0,.35,0,.05-.06.11-.12.11-.2,0-.41,0-.61,0-.08,0-.13-.06-.13-.14,0-.12,0-.23,0-.35,0-1.03,0-2.07,0-3.1,0-.22,0-.44-.02-.65-.01-.26-.08-.52-.18-.76-.25-.59-.7-.95-1.34-1.06-.29-.05-.58-.06-.87,0-.63.11-1.09.45-1.38,1.03-.14.28-.22.57-.25.88-.02.25-.03.49-.03.74,0,1.03,0,2.07,0,3.1,0,.09,0,.17-.02.26,0,.02-.04.05-.06.06-.13.01-.26.02-.39.02-.42,0-.41.04-.41-.4,0-1,0-2.01,0-3.01Z"/>
    <path class="cls-6" d="M147.05,42.93c-.8,0-1.6,0-2.4,0-.1,0-.2,0-.3.01-.03,0-.08.06-.08.09.02.95.61,1.79,1.49,2.12.58.22,1.17.23,1.76.04.57-.18.99-.54,1.24-1.09.03-.07.05-.14.09-.2.02-.03.06-.07.1-.07.25,0,.49,0,.74,0,.04,0,.08.05.07.09-.02.07-.03.14-.06.21-.4,1.06-1.18,1.67-2.28,1.88-.4.08-.81.08-1.22.03-1.34-.17-2.38-1.07-2.71-2.38-.07-.27-.11-.54-.11-.82,0-.44,0-.87.11-1.3.06-.21.12-.42.21-.62.39-.84,1.02-1.4,1.91-1.66.73-.22,1.47-.23,2.19.02,1.03.34,1.69,1.05,1.98,2.1.06.23.1.46.1.69,0,.25,0,.49-.01.74,0,.08-.06.13-.14.13-.12,0-.23,0-.35,0-.77,0-1.54,0-2.32,0ZM146.61,42.2c.65,0,1.31,0,1.96,0,.1,0,.2,0,.3-.01.03,0,.06-.05.09-.08,0,0,0-.03,0-.04,0-.82-.34-1.47-1.05-1.88-.66-.38-1.38-.43-2.11-.19-.91.3-1.53,1.16-1.55,2.11,0,.03.05.08.08.09.1,0,.2.01.3.01.65,0,1.31,0,1.96,0Z"/>
    <path class="cls-10" d="M173.54,42.59c0,.98,0,1.95,0,2.93,0,.12,0,.23,0,.35,0,.05-.04.09-.08.09-.23,0-.46,0-.7,0-.04,0-.08-.04-.08-.09,0-.12,0-.23,0-.35,0-.26,0-.52,0-.79,0-.03-.02-.05-.06-.05-.01,0-.03.01-.03.02-.04.06-.09.12-.13.17-.51.68-1.17,1.07-2.02,1.17-.46.05-.9.03-1.34-.09-.86-.23-1.5-.76-1.91-1.54-.22-.42-.34-.86-.39-1.33-.04-.38-.03-.76.02-1.13.08-.62.3-1.18.68-1.68.36-.46.82-.78,1.37-.97.68-.24,1.37-.25,2.06-.07.59.16,1.08.49,1.46.98.06.08.12.16.18.25.02.03.04.04.07.01,0,0,.02-.02.02-.03,0-.13,0-.26,0-.39,0-.23,0-.47,0-.7,0-.08.05-.13.14-.13.2,0,.41,0,.61,0,.06,0,.11.05.11.11,0,.12,0,.23,0,.35,0,.7,0,1.4,0,2.1,0,.28,0,.55,0,.83ZM167.66,42.6c0,.31.03.63.12.94.23.71.65,1.27,1.36,1.56.59.24,1.19.28,1.79.08.88-.29,1.4-.91,1.64-1.78.14-.53.14-1.07,0-1.6-.22-.84-.71-1.46-1.53-1.77-.5-.19-1.03-.2-1.55-.07-.9.22-1.45.81-1.72,1.69-.1.31-.11.63-.12.96Z"/>
    <path class="cls-4" d="M211.58,41.64c0-1.28,0-2.56,0-3.84,0-.12,0-.23,0-.35,0-.07.06-.13.14-.13.2,0,.41,0,.61,0,.05,0,.11.06.11.11,0,.12,0,.23,0,.35,0,.99,0,1.98,0,2.97,0,.12,0,.23,0,.35,0,.05.02.1.06.1.03,0,.08-.02.11-.05.06-.06.12-.12.18-.19.83-.9,1.66-1.79,2.49-2.69.26-.28.52-.55.77-.83.08-.09.18-.13.31-.13.25,0,.5,0,.74,0,.02,0,.05.02.07.04.03.02.02.07-.02.11-.08.09-.16.17-.24.26-1.09,1.16-2.17,2.32-3.26,3.47-.11.12-.22.23-.33.35-.06.06-.05.12.01.19.07.08.14.15.21.22,1.15,1.22,2.3,2.44,3.45,3.66.08.08.15.17.23.26,0,.01,0,.07-.02.07-.07.01-.14.02-.21.02-.27-.01-.55.04-.82-.03-.18-.19-.37-.37-.55-.56-.95-1.01-1.89-2.02-2.84-3.03-.07-.07-.15-.14-.22-.2-.02-.02-.1,0-.1.04,0,.13-.02.26-.02.39,0,.98,0,1.95,0,2.93,0,.12,0,.23,0,.35,0,.05-.06.11-.12.11-.2,0-.41,0-.61,0-.08,0-.14-.06-.14-.13,0-.13,0-.26,0-.39,0-1.27,0-2.53,0-3.8Z"/>
    <path class="cls-4" d="M151.44,41.38c0-1.4,0-2.8,0-4.19,0-.1,0-.2.02-.3,0-.02.04-.04.06-.06.02-.01.06-.02.08-.02.19,0,.38,0,.57,0,.1,0,.15.05.15.17,0,.12,0,.23,0,.35,0,.84,0,1.69,0,2.53,0,.09.02.17.03.26,0,0,.02.01.03.02.01,0,.04.01.04,0,.03-.03.06-.06.09-.1.36-.47.85-.74,1.42-.88.47-.11.96-.12,1.43-.01,1.04.23,1.66.9,1.92,1.93.08.31.09.63.09.95,0,.99,0,1.98,0,2.97,0,.23,0,.47,0,.7,0,.06,0,.12-.01.17,0,.05-.05.08-.09.08-.22,0-.44,0-.65,0-.06,0-.11-.05-.11-.11,0-.13,0-.26,0-.39,0-1.03,0-2.07,0-3.1,0-.2,0-.41-.01-.61-.02-.31-.1-.6-.23-.88-.27-.53-.7-.84-1.28-.96-.35-.07-.69-.07-1.04,0-.57.12-1.01.43-1.3.94-.14.24-.22.51-.26.78-.04.26-.06.52-.06.78,0,1.02,0,2.04,0,3.06,0,.13,0,.26,0,.39,0,.06-.06.11-.12.11-.2,0-.41,0-.61,0-.08,0-.14-.06-.14-.13,0-.13,0-.26,0-.39,0-1.35,0-2.71,0-4.06Z"/>
    <path class="cls-10" d="M258.72,39.11c.39-.01.76.05,1.12.17,1.06.35,1.76,1.06,2.08,2.12.24.77.24,1.55.01,2.32-.38,1.32-1.46,2.15-2.73,2.31-.5.06-.99.05-1.47-.09-1.11-.3-1.85-1.01-2.22-2.09-.25-.75-.25-1.51-.08-2.28.08-.33.21-.64.38-.92.47-.77,1.16-1.25,2.04-1.46.28-.07.57-.1.86-.09ZM256.22,42.58c0,.32.02.64.11.95.24.82.75,1.4,1.58,1.66.32.1.65.14.99.11,1.07-.09,1.88-.77,2.17-1.8.06-.21.09-.43.1-.64.04-.42,0-.84-.12-1.25-.21-.69-.63-1.21-1.29-1.51-.42-.19-.87-.25-1.32-.2-.99.1-1.67.6-2.04,1.54-.14.37-.18.76-.18,1.16Z"/>
    <path class="cls-4" d="M224.49,42.62c0,.95,0,1.89,0,2.84,0,.12,0,.23,0,.35,0,.1-.06.15-.17.15-.19,0-.38,0-.57,0-.01,0-.03,0-.04,0-.03,0-.09-.05-.09-.08,0-.13,0-.26-.01-.39,0-.13-.01-.26-.02-.39,0-.04-.02-.05-.06-.05-.01,0-.03,0-.04,0-.04.04-.08.08-.12.13-.34.43-.79.68-1.31.81-.56.14-1.13.13-1.68-.04-.91-.28-1.48-.89-1.72-1.81-.07-.25-.11-.51-.1-.78,0-.12,0-.23,0-.35,0-1.12,0-2.24,0-3.36,0-.12,0-.23.01-.35,0-.03.05-.08.08-.08.23,0,.46,0,.7,0,.02,0,.05.03.06.06.01.02.02.06.02.08,0,.13,0,.26,0,.39,0,1.09,0,2.18,0,3.28,0,.29.01.58.09.87.05.17.11.33.19.48.17.31.42.56.74.71.69.31,1.38.31,2.07-.02.39-.19.67-.51.85-.91.16-.37.21-.75.23-1.15,0-.12,0-.23,0-.35,0-1,0-2.01,0-3.01,0-.12,0-.23,0-.35,0-.04.05-.09.08-.09.22,0,.44,0,.65,0,.08,0,.13.06.13.14,0,.12,0,.23,0,.35,0,.98,0,1.95,0,2.93Z"/>
    <path class="cls-4" d="M201.75,42.59c0,.98,0,1.95,0,2.93,0,.12,0,.23-.01.35,0,.05-.04.09-.08.09-.22,0-.44.01-.65.01-.08,0-.13-.05-.13-.14-.02-.25.02-.49-.03-.74,0-.01-.01-.03-.02-.03-.03,0-.05,0-.08,0-.01,0-.02.02-.03.03-.03.03-.06.07-.08.1-.39.49-.92.74-1.53.85-.51.09-1.02.06-1.51-.1-.8-.26-1.35-.79-1.61-1.59-.09-.26-.15-.53-.16-.81,0-.15-.01-.29-.01-.44,0-1.18,0-2.36,0-3.54,0-.09,0-.18.02-.26,0-.03.05-.08.08-.08.22,0,.44,0,.65,0,.06,0,.11.06.11.11,0,.1,0,.2,0,.31,0,.57,0,1.14,0,1.7,0,.58,0,1.17,0,1.75,0,.26.02.52.08.78.17.69.66,1.31,1.62,1.44.33.04.67.03,1-.06.57-.16.98-.5,1.23-1.03.1-.21.16-.44.2-.67.04-.27.06-.55.06-.83,0-.99,0-1.98,0-2.97,0-.12,0-.23,0-.35,0-.14.04-.18.18-.18.19,0,.38,0,.57,0,.06,0,.12.06.12.11,0,.12,0,.23,0,.35,0,.98,0,1.95,0,2.93Z"/>
    <path class="cls-10" d="M226.44,42.57c0-.98,0-1.95,0-2.93,0-.12,0-.23.01-.35,0-.04.04-.08.09-.08.23,0,.46,0,.7,0,.02,0,.05.03.06.06.01.07.02.14.02.22,0,.2,0,.41,0,.61,0,0,.02.02.03.03.03,0,.06,0,.08,0,.03-.03.06-.06.09-.1.37-.49.87-.77,1.46-.89.49-.1.99-.09,1.47.04.97.27,1.58.89,1.82,1.87.06.25.1.51.1.78,0,1.31,0,2.62,0,3.93,0,.04,0,.09-.02.13,0,.02-.04.04-.06.06-.02.01-.06.02-.08.02-.17,0-.35,0-.52,0-.13,0-.18-.05-.18-.19,0-.42,0-.84,0-1.27,0-.79,0-1.57,0-2.36,0-.31-.02-.61-.1-.91-.18-.65-.58-1.1-1.24-1.3-.5-.15-1.01-.14-1.5.03-.51.18-.87.52-1.09,1-.17.36-.22.75-.24,1.15,0,.12,0,.23,0,.35,0,.99,0,1.98,0,2.97,0,.13,0,.26,0,.39,0,.05-.06.12-.11.12-.22,0-.44,0-.65,0-.06,0-.11-.05-.11-.11,0-.12,0-.23,0-.35,0-.98,0-1.95,0-2.93Z"/>
    <path class="cls-5" d="M188.05,42.54c0-.98,0-1.95,0-2.93,0-.1,0-.2,0-.31,0-.05.06-.1.12-.11.06,0,.12,0,.17,0,.67.01.57-.1.58.57,0,.1,0,.2,0,.31,0,.03.02.06.05.06.02,0,.06-.01.07-.03.04-.04.07-.09.11-.14.37-.46.87-.73,1.44-.83.48-.09.96-.08,1.43.04,1.03.28,1.64.95,1.86,1.99.06.28.09.58.09.87,0,1.22,0,2.45,0,3.67,0,.04,0,.09,0,.13,0,.06-.05.12-.11.12-.22,0-.44,0-.65,0-.04,0-.1-.07-.1-.12,0-.13,0-.26,0-.39,0-1.11,0-2.21,0-3.32,0-.26-.03-.52-.09-.78-.16-.69-.56-1.18-1.24-1.4-.48-.15-.98-.15-1.46,0-.7.23-1.11.72-1.29,1.42-.07.28-.1.57-.1.87,0,.87,0,1.75,0,2.62,0,.33,0,.67-.01,1,0,.05-.04.07-.08.09-.01,0-.03,0-.04,0-.2,0-.41,0-.61,0-.08,0-.13-.06-.13-.14,0-.12,0-.23,0-.35,0-.98,0-1.95,0-2.93Z"/>
    <path class="cls-4" d="M234.38,44.06c.1,0,.2,0,.31,0,.06,0,.11.04.13.1.01.04.02.09.03.13.12.38.38.65.73.82.14.07.3.12.45.15.4.08.81.09,1.21-.03.29-.09.53-.25.7-.5.16-.24.21-.5.14-.79-.04-.15-.11-.27-.22-.37-.16-.15-.35-.26-.56-.33-.22-.08-.44-.14-.67-.21-.38-.11-.76-.2-1.13-.34-.12-.05-.25-.09-.36-.14-.13-.06-.26-.14-.38-.22-.92-.61-.93-1.92-.16-2.61.22-.2.47-.35.74-.44.73-.26,1.46-.26,2.18,0,.63.22,1.07.64,1.28,1.28.04.14.07.28.1.43.02.13-.03.19-.16.2-.19,0-.38,0-.57,0-.08,0-.12-.04-.15-.13-.01-.04-.02-.08-.03-.13-.15-.59-.55-.91-1.13-1.02-.29-.06-.58-.05-.87,0-.25.04-.47.14-.67.29-.51.39-.49,1.11-.04,1.48.17.14.36.26.56.32.37.12.75.24,1.12.36.29.09.58.19.87.29.22.08.42.2.6.35.4.33.56.77.54,1.28-.02.53-.26.95-.67,1.27-.3.24-.65.39-1.02.47-.6.12-1.19.08-1.77-.09-.35-.1-.67-.27-.95-.52-.38-.33-.59-.75-.65-1.25,0-.03.05-.08.08-.09.13,0,.26,0,.39,0,0,0,0,0,0,0Z"/>
    <path class="cls-4" d="M182.54,41.18c-.1,0-.2,0-.31,0-.09,0-.12-.03-.15-.13-.02-.06-.03-.11-.05-.17-.15-.53-.51-.84-1.03-.96-.34-.09-.69-.08-1.04,0-.28.06-.52.19-.72.39-.35.34-.32.98.02,1.3.18.17.39.3.63.39.27.09.55.18.83.27.28.09.56.17.83.26.15.05.3.11.45.17.19.08.36.2.51.33.4.34.54.78.51,1.29-.03.49-.25.89-.63,1.2-.3.25-.64.41-1.01.48-.33.07-.66.1-1,.07-.27-.03-.55-.05-.82-.14-.35-.11-.67-.27-.95-.52-.34-.3-.56-.67-.63-1.11-.03-.2,0-.24.19-.24.19,0,.38,0,.57,0,.06,0,.11.04.12.1,0,.03.01.06.02.08.13.46.43.75.86.92.11.04.22.08.33.1.42.08.84.09,1.25-.04.27-.09.5-.24.65-.48.16-.26.23-.53.13-.83-.04-.11-.09-.21-.18-.3-.15-.16-.34-.27-.55-.35-.22-.08-.44-.15-.66-.21-.31-.09-.62-.17-.92-.26-.21-.06-.41-.14-.61-.22-.22-.09-.41-.22-.58-.38-.44-.4-.57-.9-.49-1.47.06-.47.32-.84.7-1.12.36-.27.77-.41,1.21-.47.44-.05.87-.04,1.3.07.2.05.39.12.57.22.54.3.89.74,1.02,1.35,0,.03.01.06.02.09.06.3.04.33-.26.33-.04,0-.09,0-.13,0h0Z"/>
    <path class="cls-4" d="M245.1,44.06s.06,0,.09,0c.28,0,.3-.05.39.28.06.22.19.39.36.54.12.11.25.2.4.26.53.22,1.07.24,1.62.1.24-.07.45-.2.62-.39.21-.25.29-.54.23-.85-.03-.16-.11-.3-.23-.41-.16-.15-.35-.26-.56-.33-.22-.08-.44-.14-.67-.2-.38-.11-.76-.2-1.13-.34-.15-.06-.3-.11-.44-.18-.25-.12-.47-.29-.65-.5-.2-.23-.31-.49-.33-.79,0-.1,0-.2-.01-.31-.01-.42.15-.76.42-1.07.18-.2.39-.35.63-.47.22-.11.46-.19.7-.23.58-.1,1.16-.08,1.72.12.31.11.58.28.81.51.34.35.52.76.56,1.25,0,.08-.05.14-.13.14-.19,0-.38,0-.57,0-.11,0-.16-.04-.18-.14,0-.04-.01-.09-.02-.13-.16-.56-.54-.88-1.1-1-.32-.07-.64-.07-.95,0-.26.05-.49.17-.69.35-.42.37-.4,1.05,0,1.39.18.15.38.27.6.35.27.09.55.18.83.27.28.09.56.17.83.26.14.04.27.1.41.16.12.05.23.12.34.19.92.6.83,1.69.42,2.27-.14.21-.32.38-.53.51-.31.2-.65.32-1.01.38-.54.08-1.07.04-1.6-.1-.3-.08-.57-.21-.82-.39-.46-.33-.73-.78-.82-1.34,0-.06.03-.12.08-.13.04,0,.09,0,.13-.01.09,0,.17,0,.26,0h0Z"/>
    <path class="cls-2" d="M263.88,42.91c0-.86,0-1.72,0-2.57,0-.1,0-.2-.02-.3,0-.02-.03-.05-.06-.06-.06-.01-.11-.02-.17-.02-.19,0-.38,0-.57-.01-.04,0-.09-.04-.1-.07-.03-.2-.04-.4,0-.61,0-.02.04-.05.06-.05.1-.01.2-.01.3-.02.13,0,.26,0,.39,0,.11,0,.15-.05.15-.16,0-.07,0-.15,0-.22.01-.19.02-.38.04-.57.01-.13.05-.26.08-.38.16-.56.52-.93,1.07-1.11.35-.11.71-.17,1.07-.16.08,0,.13.06.14.14,0,.12,0,.23,0,.35,0,.24-.02.28-.27.28-.16,0-.32.04-.47.08-.43.11-.66.4-.74.82-.05.27-.05.55-.03.83,0,.05.06.1.12.1.29,0,.58,0,.87,0,.15,0,.29,0,.44,0,.06,0,.11.05.11.11,0,.17,0,.35,0,.52,0,.01,0,.03-.01.04-.02.02-.04.05-.06.06-.06.01-.11.02-.17.02-.29,0-.58,0-.87,0-.09,0-.17,0-.26,0-.11,0-.17.05-.17.15,0,.15,0,.29,0,.44,0,1.64,0,3.29,0,4.93,0,.54.06.5-.48.5-.42,0-.41.01-.41-.4,0-.89,0-1.77,0-2.66Z"/>
    <path class="cls-6" d="M267.9,42.97c0-.89,0-1.78,0-2.67,0-.09,0-.18-.01-.26,0-.03-.05-.08-.08-.08-.19-.01-.38-.01-.57-.02-.06,0-.12,0-.17-.02-.03-.01-.08-.06-.08-.09-.01-.16-.01-.32-.01-.48,0-.12.04-.16.15-.16.22,0,.44,0,.66,0,.06,0,.11-.05.11-.11,0-.04,0-.09,0-.13,0-.09,0-.18,0-.26.02-.29.04-.58.13-.86.16-.51.49-.86.98-1.04.37-.14.76-.2,1.16-.19.08,0,.13.06.14.14,0,.15,0,.29,0,.44,0,.14-.04.18-.18.19-.19.01-.38.03-.56.08-.41.11-.64.38-.72.79-.03.17-.05.35-.05.52,0,.48-.05.45.44.45.33,0,.67,0,1,0,.06,0,.11.05.11.11.01.71.11.63-.56.63-.29,0-.58,0-.87,0-.05,0-.11.06-.11.11,0,.15-.01.29-.01.44,0,1.66,0,3.32,0,4.98,0,.13,0,.26-.02.39,0,.04-.04.08-.09.08-.22,0-.44,0-.65,0-.07,0-.13-.07-.13-.15,0-.12,0-.23,0-.35,0-.83,0-1.66,0-2.49h0Z"/>
    <path class="cls-2" d="M251.56,42.26c0-.65,0-1.31,0-1.96,0-.09,0-.17-.02-.26,0-.02-.03-.05-.06-.06-.06-.01-.11-.02-.17-.02-.19,0-.38,0-.57-.01-.04,0-.09-.04-.1-.07-.03-.2-.04-.4,0-.6,0-.02.04-.05.06-.05.13,0,.26-.01.39-.02.12,0,.23,0,.35,0,.05,0,.1-.06.11-.12,0-.09,0-.17,0-.26,0-.35,0-.7,0-1.05,0-.06,0-.12.02-.17,0-.02.03-.06.06-.06.25-.03.49-.03.74,0,.04,0,.08.04.08.09,0,.13,0,.26,0,.39,0,.35,0,.7,0,1.05,0,.08.06.13.14.13.04,0,.09,0,.13,0,.38,0,.76,0,1.14,0,.49,0,.44-.03.45.45,0,.06,0,.12,0,.17,0,.05-.06.12-.11.12-.1,0-.2.01-.3.01-.39,0-.79,0-1.18,0-.06,0-.12,0-.17.02-.03.01-.07.06-.08.09-.01.09-.01.17-.01.26,0,1.24,0,2.47,0,3.71,0,.15,0,.29.02.44,0,.09.03.17.06.25.07.23.23.36.46.43.18.05.37.07.56.07.22,0,.44,0,.65,0,.04,0,.08.03.09.08,0,.01,0,.03,0,.04,0,.01,0,.03,0,.04,0,.65.11.58-.57.59-.28,0-.55,0-.83-.04-.07,0-.15-.02-.22-.03-.62-.17-.98-.5-1.1-1.21-.04-.23-.04-.46-.05-.7,0-.58,0-1.16,0-1.75h0Z"/>
    <path class="cls-5" d="M241.74,42.21c0,.64,0,1.28,0,1.92,0,.19.01.38.07.56.08.24.24.39.48.46.18.05.37.07.56.07.22,0,.44,0,.65.01.02,0,.06.03.06.05.02.2.04.4,0,.61,0,.02-.04.04-.06.06-.01,0-.03.01-.04.01-.44,0-.87.02-1.31-.03-.06,0-.12-.02-.17-.03-.57-.14-.94-.49-1.07-1.08-.04-.17-.06-.34-.06-.52,0-.19,0-.38,0-.57,0-1.12,0-2.24,0-3.36,0-.1,0-.2,0-.31,0-.05-.06-.11-.11-.11-.07,0-.15,0-.22,0-.15,0-.29,0-.44,0-.13,0-.17-.05-.17-.19,0-.15,0-.29,0-.44,0-.05.06-.11.11-.11.09,0,.17,0,.26,0,.13,0,.26,0,.39,0,.13,0,.17-.05.17-.19,0-.38,0-.76,0-1.14,0-.09,0-.17,0-.26,0-.03.06-.08.09-.08.23,0,.46,0,.7,0,.03,0,.07.06.08.09.01.13,0,.26.01.39,0,.35,0,.7,0,1.05,0,.08.05.13.14.13.44,0,.87,0,1.31,0,.1,0,.2,0,.31.01.02,0,.06.03.07.05.04.2.04.4,0,.61,0,.02-.03.05-.06.06-.07.01-.14.02-.21.02-.42,0-.84,0-1.27,0-.07,0-.14,0-.22.02-.02,0-.05.04-.06.06-.01.07-.02.14-.02.21,0,.65,0,1.31,0,1.96h0Z"/>
    <path class="cls-8" d="M242.25,14.02c.31-.02.62.06.9.21.78.42,1.06,1.21.82,2-.13.46-.45.78-.87.98-.38.18-.78.23-1.19.18-.17-.02-.34-.06-.51-.12-.54-.2-1.12-.76-1.08-1.63.03-.78.57-1.32,1.17-1.53.24-.08.48-.1.75-.09Z"/>
    <path class="cls-6" d="M176.39,41.43c0,1.34,0,2.68,0,4.02,0,.13,0,.26,0,.39,0,.06-.05.12-.11.12-.22,0-.44,0-.65,0-.05,0-.1-.06-.1-.12,0-.1,0-.2,0-.31,0-2.78,0-5.56,0-8.34,0-.09,0-.17,0-.26,0-.06.05-.12.1-.12.22,0,.44,0,.65,0,.06,0,.11.06.11.12,0,.13,0,.26,0,.39,0,1.37,0,2.74,0,4.11Z"/>
    <path class="cls-10" d="M203.71,42.56c0-.96,0-1.92,0-2.88,0-.12,0-.23,0-.35,0-.06.05-.12.1-.12.22,0,.44,0,.65,0,.06,0,.11.05.11.11,0,.13,0,.26,0,.39,0,.15,0,.29,0,.44,0,0,.01.02.02.03.03.02.05.02.08-.01.04-.05.07-.09.1-.14.39-.54.94-.81,1.58-.91.1-.02.2-.02.3-.03.2-.01.23.04.23.22,0,.19,0,.38,0,.57,0,.06-.06.11-.11.11-.26,0-.52.02-.78.08-.2.05-.39.12-.57.22-.34.2-.58.48-.7.86-.09.28-.14.57-.15.86,0,.15,0,.29,0,.44,0,1.03,0,2.07,0,3.1,0,.1,0,.2,0,.31,0,.05-.06.11-.11.11-.2,0-.41,0-.61,0-.01,0-.03,0-.04,0-.05,0-.1-.07-.1-.12,0-.12,0-.23,0-.35,0-.98,0-1.95,0-2.93Z"/>
    <path class="cls-5" d="M159.28,42.59c0-1,0-2.01,0-3.01,0-.1,0-.2.02-.3,0-.02.04-.06.06-.06.23,0,.46,0,.7,0,.05,0,.1.06.1.12,0,.19,0,.38,0,.57,0,.09,0,.17.01.26,0,0,.02.02.03.02.01,0,.03,0,.04,0,.05-.06.09-.11.14-.17.39-.52.92-.79,1.55-.89.14-.02.29-.02.43-.03.05,0,.11.06.11.11,0,.2,0,.41,0,.61,0,.14-.04.18-.18.18-.23,0-.47.01-.69.08-.1.03-.2.05-.29.09-.56.21-.91.61-1.05,1.19-.07.28-.1.57-.09.86,0,1.08,0,2.15,0,3.23,0,.13,0,.26,0,.39,0,.08-.06.13-.14.13-.2,0-.41,0-.61,0-.08,0-.12-.06-.13-.15,0-.12,0-.23,0-.35,0-.96,0-1.92,0-2.88Z"/>
  </g>
</svg>